<?xml version="1.0"?>
<svg width="576.49928" height="493.5" xmlns="http://www.w3.org/2000/svg" xmlns:svg="http://www.w3.org/2000/svg" data-name="Layer 1">
 <g class="layer">
  <title>Layer 1</title>
  <path d="m13.81,312.13l295.56,-0.25l-1.25,-233.12c0,0 -203.88,-1.01 -213.24,-1c-9.35,0.01 -80.45,10.03 -79.89,93.12c0.56,83.1 -1.18,141.25 -1.18,141.25z" fill="#ffffff" id="svg_34"/>
  <path d="m481.17,691.6c9.26,-7.82 14.88,-20.17 13.4,-32.2s-10.6,-23.08 -22.44,-25.63s-25.35,4.51 -28.95,16.08c-1.98,-22.31 -4.26,-45.55 -16.12,-64.54c-10.74,-17.2 -29.34,-29.51 -49.49,-31.71s-41.38,6.11 -53.95,22.02s-15.65,39.04 -6.85,57.31c6.49,13.45 18.44,23.47 30.96,31.61a199.79,199.79 0 0 0 136.64,29.9" fill="#f2f2f2" id="svg_1" transform="translate(-311.75036 -203.25)"/>
  <path d="m343.55,560.17a326.88,326.88 0 0 1 45.55,45.24a327.83,327.83 0 0 1 51.31,85.74c0.93,2.26 -2.75,3.25 -3.66,1.01a324.46,324.46 0 0 0 -29.65,-56.09a325.7,325.7 0 0 0 -66.24,-73.21c-1.9,-1.54 0.81,-4.22 2.69,-2.69z" fill="#fff" id="svg_2" transform="translate(-311.75036 -203.25)"/>
  <path d="m175.81,488.35c-9.25,-7.82 -14.87,-20.17 -13.4,-32.2s10.61,-23.08 22.45,-25.63s25.35,4.51 28.94,16.08c1.98,-22.31 4.27,-45.55 16.12,-64.54c10.74,-17.2 29.34,-29.51 49.5,-31.71s41.38,6.11 53.95,22.02s15.65,39.04 6.84,57.31c-6.48,13.45 -18.43,23.47 -30.95,31.61a199.79,199.79 0 0 1 -136.64,29.9" fill="#f2f2f2" id="svg_3" transform="matrix(1 0 0 1 0 0)"/>
  <path d="m625.19,560.17a326.88,326.88 0 0 0 -45.56,45.24a327.83,327.83 0 0 0 -51.3,85.74c-0.93,2.26 2.75,3.25 3.66,1.01a325.99,325.99 0 0 1 95.89,-129.3c1.89,-1.54 -0.81,-4.22 -2.69,-2.69z" fill="#fff" id="svg_4" transform="translate(-311.75036 -203.25)"/>
  <circle cx="203.28" cy="191" fill="#f2f2f2" id="svg_5" r="31"/>
  <path d="m107.7,84.14l213.58,0l0,11.68l-186.32,0a83.42,83.42 0 0 0 -83.42,83.42l0,132.76l-23.37,0a3.9,3.9 0 0 1 -3.89,-3.9l0,-140.54a83.42,83.42 0 0 1 83.42,-83.42z" fill="#f2f2f2" id="svg_6"/>
  <path d="m460.53,692.25l0,-177.5l52,0l0,177.5a4.51,4.51 0 0 1 -4.5,4.5l-43,0a4.51,4.51 0 0 1 -4.5,-4.5z" fill="#3f3d56" id="svg_7" transform="translate(-311.75036 -203.25)"/>
  <path d="m13.28,308l0,-144.33a86.76,86.76 0 0 1 86.66,-86.67l220.34,0l0,236l-302,0a5.01,5.01 0 0 1 -5,-5zm305,-229l-218.34,0a84.76,84.76 0 0 0 -84.66,84.67l0,144.33a3,3 0 0 0 3,3l300,0l0,-232z" fill="#3f3d56" id="svg_8"/>
  <path d="m203.28,207a18.02,18.02 0 0 1 -18,-18l0,-129a3,3 0 0 0 -3,-3l-70,0a5.01,5.01 0 0 1 -5,-5l0,-47a5.01,5.01 0 0 1 5,-5l104,0a5.01,5.01 0 0 1 5,5l0,184a18.02,18.02 0 0 1 -18,18z" fill="#6c63ff" id="svg_9"/>
  <path d="m328.28,75l0,0a56.88,56.88 0 0 1 57,56.76l0,164.31l112,0a16.96,16.96 0 0 1 17,16.93l-243,0l0,-181.24a56.88,56.88 0 0 1 57,-56.76z" fill="#3f3d56" id="svg_10"/>
  <path d="m626.35,371.82l11.8,48.75l230.88,-55.89l-11.8,-48.75a3.64,3.64 0 0 0 -2.36,-2.6a3.59,3.59 0 0 0 -1.33,-0.2l-133.46,-69.1a3.68,3.68 0 0 0 -4.66,1.12l-64.32,89.69l-24.24,33.82a0.51,0.51 0 0 0 -0.09,0.42a3.64,3.64 0 0 0 -0.42,2.74z" fill="#fff" id="svg_11" transform="translate(-311.75036 -203.25)"/>
  <path d="m626.77,369.08a0.49,0.49 0 0 0 0.2,0.32a0.56,0.56 0 0 0 0.43,0.08a0.54,0.54 0 0 0 0.3,-0.2l0.08,-0.12l1.27,-1.76l22.93,-31.97l64.3,-89.67a2.62,2.62 0 0 1 3.32,-0.8l132.42,68.57l1.19,0.62a1.29,1.29 0 0 0 0.15,0.05a1.62,1.62 0 0 1 0.27,-0.03a0.51,0.51 0 0 0 0.29,-0.24a0.52,0.52 0 0 0 -0.22,-0.71l-0.16,-0.09l-133.46,-69.1a3.68,3.68 0 0 0 -4.66,1.12l-64.32,89.69l-24.24,33.82a0.51,0.51 0 0 0 -0.09,0.42z" fill="#3f3d56" id="svg_12" transform="translate(-311.75036 -203.25)"/>
  <path d="m696.11,374.05l5.14,0.57l38.14,4.23l25.28,2.8l1.5,0.16l31.55,-24.64l1.21,-0.94l7.45,-5.82l26.52,-20.71l0.15,-1.45l9.43,-85.12a4.45,4.45 0 0 0 -3.92,-4.91l-125.86,-13.94a4.46,4.46 0 0 0 -4.91,3.93l-6.65,60.03l-3.69,33.29l-3.3,29.78l-1.53,13.83l-0.45,4a4.46,4.46 0 0 0 3.94,4.91z" fill="#e6e6e6" id="svg_13" transform="translate(-311.75036 -203.25)"/>
  <path d="m730.69,299.45l54.52,6.04l19.33,2.14a6.54,6.54 0 1 0 1.44,-13l-24.04,-2.67l-49.8,-5.52a6.54,6.54 0 0 0 -1.45,13.01z" fill="#fff" id="svg_14" transform="translate(-311.75036 -203.25)"/>
  <path d="m727.59,323.56c0.14,0.03 0.28,0.05 0.42,0.07l63.29,7.01l10.56,1.17a6.54,6.54 0 0 0 1.44,-13l-15.28,-1.69l-50.13,-5.56l-8.43,-0.93a6.54,6.54 0 0 0 -1.87,12.93z" fill="#fff" id="svg_15" transform="translate(-311.75036 -203.25)"/>
  <path d="m720.43,344.95a6.54,6.54 0 0 0 4.88,3.12l25.94,2.88l46.19,5.11l0.01,0l1.48,0.17l7.45,-5.82a6.47,6.47 0 0 0 0,-1.33a6.55,6.55 0 0 0 -5.78,-5.83l-6.42,-0.71l-25.46,-2.82l-18.32,-2.03l-23.66,-2.62a6.54,6.54 0 0 0 -6.31,9.88z" fill="#fff" id="svg_16" transform="translate(-311.75036 -203.25)"/>
  <path d="m756.86,269.97l13.56,1.5l5.99,0.67l9.05,1a6.54,6.54 0 0 0 1.44,-13.01l-28.6,-3.16a6.54,6.54 0 1 0 -1.44,13z" fill="#fff" id="svg_17" transform="translate(-311.75036 -203.25)"/>
  <path d="m645.94,306.18l16.54,68.32l27.6,5.24l25.53,4.86l27.4,5.22l8.75,1.66a3.67,3.67 0 0 0 2.94,-0.71l7.02,-5.48l4.45,-3.48l31.55,-24.64l-20.06,-82.87a4.4,4.4 0 0 0 -1.25,-2.16a4.45,4.45 0 0 0 -4.12,-1.12l-123.07,29.79a4.45,4.45 0 0 0 -3.28,5.37z" fill="#6c63ff" id="svg_18" transform="translate(-311.75036 -203.25)"/>
  <path d="m683.86,360.53a6.55,6.55 0 0 0 7.9,4.82l72.21,-17.49a6.55,6.55 0 0 0 4.82,-7.89a2.1,2.1 0 0 0 -0.07,-0.25a6.54,6.54 0 0 0 -7.82,-4.57l-72.22,17.48a6.55,6.55 0 0 0 -4.82,7.9z" fill="#fff" id="svg_19" transform="translate(-311.75036 -203.25)"/>
  <path d="m690.08,379.74l25.53,4.86l54.09,-13.09a6.54,6.54 0 1 0 -3.08,-12.71l-72.21,17.48a6.49,6.49 0 0 0 -3.75,2.51a6.58,6.58 0 0 0 -0.58,0.95z" fill="#fff" id="svg_20" transform="translate(-311.75036 -203.25)"/>
  <path d="m743.01,389.82l8.75,1.66a3.67,3.67 0 0 0 2.94,-0.71l7.02,-5.48l-18.71,4.53z" fill="#fff" id="svg_21" transform="translate(-311.75036 -203.25)"/>
  <path d="m698.41,323.9a6.55,6.55 0 0 0 7.9,4.81l27.97,-6.77a6.55,6.55 0 0 0 4.82,-7.89a6.47,6.47 0 0 0 -1.21,-2.49a6.55,6.55 0 0 0 -6.69,-2.33l-27.97,6.77a6.54,6.54 0 0 0 -4.82,7.9z" fill="#fff" id="svg_22" transform="translate(-311.75036 -203.25)"/>
  <path d="m403.86,181.35l27.4,5.22l8.75,1.66a3.69,3.69 0 0 0 2.94,-0.71l7.03,-5.48l-2.47,0.59l-5.21,4.07a2.64,2.64 0 0 1 -2.09,0.5l-6.48,-1.23l-27.4,-5.21l-2.47,0.59zm81.84,-28.53l0.27,1.1l1.21,-0.95l-1.48,-0.15zm-81.84,28.53l27.4,5.22l8.75,1.66a3.69,3.69 0 0 0 2.94,-0.71l7.03,-5.48l-2.47,0.59l-5.21,4.07a2.64,2.64 0 0 1 -2.09,0.5l-6.48,-1.23l-27.4,-5.21l-2.47,0.59zm0,0l27.4,5.22l8.75,1.66a3.69,3.69 0 0 0 2.94,-0.71l7.03,-5.48l-2.47,0.59l-5.21,4.07a2.64,2.64 0 0 1 -2.09,0.5l-6.48,-1.23l-27.4,-5.21l-2.47,0.59zm-89.26,-12.78l30.92,127.71a3.67,3.67 0 0 0 4.42,2.7l223.76,-54.17a3.67,3.67 0 0 0 2.7,-4.42l-30.92,-127.71a3.64,3.64 0 0 0 -2.36,-2.6a3.59,3.59 0 0 0 -1.33,-0.2a3.46,3.46 0 0 0 -1.52,0.4a3.18,3.18 0 0 0 -0.6,0.38l-18.37,14.34l-26.67,20.83l-8.93,6.98l0,0.01l-0.01,0l-32.76,25.58l-5.42,4.23l-5.21,4.07a2.64,2.64 0 0 1 -2.09,0.5l-6.48,-1.23l-27.4,-5.21l-27.42,-5.22l-60.07,-11.43a3.59,3.59 0 0 0 -1.54,0.04a3.67,3.67 0 0 0 -1.79,1.03a4.11,4.11 0 0 0 -0.49,0.65a3.64,3.64 0 0 0 -0.42,2.74zm89.26,12.78l27.4,5.22l8.75,1.66a3.69,3.69 0 0 0 2.94,-0.71l7.03,-5.48l-2.47,0.59l-5.21,4.07a2.64,2.64 0 0 1 -2.09,0.5l-6.48,-1.23l-27.4,-5.21l-2.47,0.59zm0,0l27.4,5.22l8.75,1.66a3.69,3.69 0 0 0 2.94,-0.71l7.03,-5.48l-2.47,0.59l-5.21,4.07a2.64,2.64 0 0 1 -2.09,0.5l-6.48,-1.23l-27.4,-5.21l-2.47,0.59zm0,0l27.4,5.22l8.75,1.66a3.69,3.69 0 0 0 2.94,-0.71l7.03,-5.48l-2.47,0.59l-5.21,4.07a2.64,2.64 0 0 1 -2.09,0.5l-6.48,-1.23l-27.4,-5.21l-2.47,0.59z" fill="#fff" id="svg_23"/>
  <path d="m715.61,384.6l27.4,5.22l8.75,1.66a3.69,3.69 0 0 0 2.94,-0.71l7.03,-5.48l-2.47,0.59l-5.21,4.07a2.64,2.64 0 0 1 -2.09,0.5l-6.48,-1.23l-27.4,-5.21l-2.47,0.59zm81.84,-28.53l0.27,1.1l1.21,-0.95l-1.48,-0.15zm-81.84,28.53l27.4,5.22l8.75,1.66a3.69,3.69 0 0 0 2.94,-0.71l7.03,-5.48l-2.47,0.59l-5.21,4.07a2.64,2.64 0 0 1 -2.09,0.5l-6.48,-1.23l-27.4,-5.21l-2.47,0.59zm0,0l27.4,5.22l8.75,1.66a3.69,3.69 0 0 0 2.94,-0.71l7.03,-5.48l-2.47,0.59l-5.21,4.07a2.64,2.64 0 0 1 -2.09,0.5l-6.48,-1.23l-27.4,-5.21l-2.47,0.59zm-87.83,-15.44l0.14,0.1c0.02,-0.03 0.06,-0.07 0.09,-0.11a2.64,2.64 0 0 1 2.39,-0.76l59.68,11.35l25.53,4.86l27.4,5.22l8.75,1.66a3.69,3.69 0 0 0 2.94,-0.71l7.03,-5.48l-2.47,0.59l-5.21,4.07a2.64,2.64 0 0 1 -2.09,0.5l-6.48,-1.23l-27.4,-5.21l-27.42,-5.22l-60.07,-11.43a3.59,3.59 0 0 0 -1.54,0.04l-1.27,1.76zm-1.43,2.66l30.92,127.71a3.67,3.67 0 0 0 4.42,2.7l223.76,-54.17a3.67,3.67 0 0 0 2.7,-4.42l-30.92,-127.71a3.64,3.64 0 0 0 -2.36,-2.6a3.59,3.59 0 0 0 -1.33,-0.2a3.46,3.46 0 0 0 -1.52,0.4a3.18,3.18 0 0 0 -0.6,0.38l-18.37,14.34l-26.67,20.83l-8.93,6.98l0,0.01l-0.01,0l-32.76,25.58l-5.42,4.23l-5.21,4.07a2.64,2.64 0 0 1 -2.09,0.5l-6.48,-1.23l-27.4,-5.21l-27.42,-5.22l-60.07,-11.43a3.59,3.59 0 0 0 -1.54,0.04a3.67,3.67 0 0 0 -1.79,1.03a4.11,4.11 0 0 0 -0.49,0.65a3.64,3.64 0 0 0 -0.42,2.74zm1.02,-0.25a2.6,2.6 0 0 1 0.46,-2.19a0.34,0.34 0 0 1 0.09,-0.12c0.02,-0.03 0.06,-0.07 0.09,-0.11a2.64,2.64 0 0 1 2.39,-0.76l59.68,11.35l25.53,4.86l27.4,5.22l8.75,1.66a3.69,3.69 0 0 0 2.94,-0.71l7.03,-5.48l4.44,-3.47l31.55,-24.65l1.21,-0.95l7.45,-5.82l26.52,-20.7l19.17,-14.98a2.6,2.6 0 0 1 0.98,-0.47a2,2 0 0 1 0.31,-0.05a1.62,1.62 0 0 1 0.27,-0.03a2.68,2.68 0 0 1 0.9,0.15a2.63,2.63 0 0 1 1.69,1.85l30.91,127.71a2.62,2.62 0 0 1 -1.93,3.17l-223.76,54.16a2.62,2.62 0 0 1 -3.16,-1.93l-30.91,-127.71zm88.24,13.03l27.4,5.22l8.75,1.66a3.69,3.69 0 0 0 2.94,-0.71l7.03,-5.48l-2.47,0.59l-5.21,4.07a2.64,2.64 0 0 1 -2.09,0.5l-6.48,-1.23l-27.4,-5.21l-2.47,0.59zm0,0l27.4,5.22l8.75,1.66a3.69,3.69 0 0 0 2.94,-0.71l7.03,-5.48l-2.47,0.59l-5.21,4.07a2.64,2.64 0 0 1 -2.09,0.5l-6.48,-1.23l-27.4,-5.21l-2.47,0.59zm0,0l27.4,5.22l8.75,1.66a3.69,3.69 0 0 0 2.94,-0.71l7.03,-5.48l-2.47,0.59l-5.21,4.07a2.64,2.64 0 0 1 -2.09,0.5l-6.48,-1.23l-27.4,-5.21l-2.47,0.59z" fill="#3f3d56" id="svg_24" transform="translate(-311.75036 -203.25)"/>
  <path d="m827.13,422.97a8.13,8.13 0 0 1 5.98,-9.8l28.24,-6.84a8.12,8.12 0 0 1 3.82,15.78l-28.24,6.84a8.13,8.13 0 0 1 -9.8,-5.98z" fill="#6c63ff" id="svg_25" transform="translate(-311.75036 -203.25)"/>
  <circle cx="203.28" cy="189" fill="#fff" id="svg_26" r="7"/>
 </g>
</svg>