<svg width="751.95058" height="555.86821" xmlns="http://www.w3.org/2000/svg" data-name="Layer 1">

 <g>
  <title>Layer 1</title>
  <path id="svg_1" fill="#e6e6e6" d="m533.74043,407.69718l-404.93561,0a13.62481,13.62481 0 0 1 -13.609,-13.609l0,-329.72293a13.62483,13.62483 0 0 1 13.609,-13.609l404.93561,0a13.62481,13.62481 0 0 1 13.609,13.609l0,329.72292a13.62483,13.62483 0 0 1 -13.609,13.60901z"/>
  <path id="svg_2" fill="#fff" d="m137.9864,60.44286a13.12416,13.12416 0 0 0 -13.10889,13.10938l0,311.35687a13.12394,13.12394 0 0 0 13.10889,13.1084l277.1626,0a122.66,122.66 0 0 0 122.521,-122.521l0,-201.94426a13.1241,13.1241 0 0 0 -13.10888,-13.10937l-386.57472,-0.00002z"/>
  <path id="svg_3" fill="#e6e6e6" d="m459.89997,200.47388l-73.42437,0a5.78241,5.78241 0 0 1 -5.776,-5.776l0,-36.54477a5.78241,5.78241 0 0 1 5.776,-5.776l73.42437,0a5.78242,5.78242 0 0 1 5.776,5.776c4.54336,12.93234 5.18859,25.22055 0,36.5448a5.78241,5.78241 0 0 1 -5.776,5.77597z"/>
  <path id="svg_4" fill="#fff" d="m451.20153,196.942l-62.38154,0a4.91275,4.91275 0 0 1 -4.9073,-4.90731l0,-31.04853a4.91273,4.91273 0 0 1 4.9073,-4.9073l62.38154,0a4.91275,4.91275 0 0 1 4.90731,4.90729c4.21,11.05759 4.8873,21.521 0,31.04855a4.91276,4.91276 0 0 1 -4.90731,4.9073z"/>
  <path id="svg_5" fill="#e6e6e6" d="m447.83741,219.61711l-49.46179,0a5.48765,5.48765 0 0 1 -0.02045,-10.97528l49.48224,0a5.48765,5.48765 0 0 1 0,10.97528z"/>
  <path id="svg_6" fill="#e6e6e6" d="m414.5813,164.46251a2.15329,2.15329 0 0 0 -2.14577,2.14883l0,23.26065a2.14511,2.14511 0 0 0 3.20785,1.86378l20.53095,-11.70658a2.14445,2.14445 0 0 0 -0.01025,-3.73323l-20.52993,-11.55507a2.142,2.142 0 0 0 -1.05285,-0.27838z"/>
  <path id="svg_7" fill="#f2f2f2" d="m714.1143,511.36429a9.16759,9.16759 0 0 0 -9.78931,-3.129l-0.3844,0.11414l-3.44726,13.4588c-0.51648,-2.00592 -1.62152,-6.53418 -2.31818,-10.96643l-0.06006,-0.36639l-0.34228,0.15014a46.74993,46.74993 0 0 0 -10.08362,6.07782a48.36117,48.36117 0 0 0 -18.08328,36.41874l-0.006,0.25824l-0.006,0.16217l0.45643,-0.16217l9.79534,-3.50129a29.24072,29.24072 0 0 0 23.5785,-8.79242c3.95776,-4.174 6.67236,-9.54309 9.29681,-14.738c0.76874,-1.51343 1.55548,-3.075 2.36023,-4.57642a9.31906,9.31906 0 0 0 -0.96692,-10.40793z"/>
  <path id="svg_8" fill="#ffb8b8" d="m463.97016,168.14611a7.09755,7.09755 0 0 0 9.51667,5.28009l29.275,34.05588l3.7063,-12.572l-29.0235,-31.15741a7.136,7.136 0 0 0 -13.47449,4.39343l0.00002,0.00001z"/>
  <polygon id="svg_9" fill="#ffb6b6" points="581.955 545.239 572.267 545.239 567.658 507.87 581.957 507.87 581.955 545.239"/>
  <path id="svg_10" fill="#2f2e41" d="m581.69648,542.07474l-10.344,-4.20746l-0.2962,-0.12152l-5.71119,4.329a12.16122,12.16122 0 0 0 -12.15918,12.15918l0,0.3949l31.23713,0l0,-12.5541l-2.72656,0z"/>
  <polygon id="svg_11" fill="#ffb6b6" points="651.067 545.239 641.379 545.239 636.77 507.87 651.069 507.87 651.067 545.239"/>
  <path id="svg_12" fill="#2f2e41" d="m650.80854,542.07474l-10.344,-4.20746l-0.2962,-0.12152l-5.71119,4.329a12.16122,12.16122 0 0 0 -12.15918,12.15918l0,0.3949l31.23713,0l0,-12.5541l-2.72656,0z"/>
  <path id="svg_13" fill="#2f2e41" d="m628.20179,322.08933s12.15161,12.64194 12.15161,23.02936s-3.0379,24.65 0,27.7716s6.83527,6.919 2.27845,11.47583s-6.83527,6.83527 -3.79737,9.87317s1.51892,56.201 1.51892,56.201l15.9489,71.39043l-20.09312,0l-25.47522,-71.3905l-6.83527,-59.23889l-22.10547,56.96045l2.44068,74.28155l-21.00592,-0.61273l-8.69507,-78.98517s12.911,-75.134 10.63263,-77.05957s0,-5.81268 0,-5.81268l6.0758,-28.77026l56.96045,-9.11359z"/>
  <path id="svg_14" fill="#3f3d56" d="m604.4103,232.45639s4.1319,-16.28152 -14.90375,-20.94961s-73.44934,-10.66538 -73.44934,-10.66538l-27.499,-29.17993l-9.318,13.53205l30.82721,38.30816l73.04273,15.00327l21.30015,-6.04856z"/>
  <path id="svg_15" fill="#e6e6e6" d="m483.76905,184.19611a12.88929,12.88929 0 0 0 1.97852,-3.66544l3.9436,-9.69036l-1.02374,-0.04267a10.23022,10.23022 0 0 0 -12.09515,9.31562a6.66064,6.66064 0 0 0 0.64428,3.621a3.94653,3.94653 0 0 0 2.89112,2.12015a4.36353,4.36353 0 0 0 3.66137,-1.6583z"/>
  <path id="svg_16" fill="#e6e6e6" d="m567.3633,335.08311l-2.27844,16.5163s4.55682,4.89374 6.83527,4.282s10.63263,-4.17267 10.63263,-4.17267s9.87316,5.39612 15.18945,6.00782s33.41681,-3.0586 34.17627,-4.89374s9.58679,-9.01886 9.58679,-9.01886l-3.511,-20.95523l-70.63097,12.23438z"/>
  <path id="svg_17" fill="#3f3d56" d="m641.35871,277.30323s-1.929,15.92614 -0.41009,17.39193c1.519,1.45816 -1.51892,10.6858 -4.55682,16.76157s2.27844,6.83527 2.27844,11.39209s2.27838,21.26523 2.27838,21.26523s-23.54364,1.51892 -27.341,-2.27844s-9.87317,-0.75946 -18.22736,7.59472s-26.498,1.51892 -30.29541,-2.27844s2.95435,-17.46786 5.23279,-20.11841s-2.19489,0.4177 -4.47333,-7.98205s2.19489,-7.59473 5.99225,-11.39209s0,-10.63263 -3.0379,-17.46787s-0.75946,-57.71991 -0.75946,-69.87149s16.70837,-13.6705 16.70837,-13.6705l6.615,-8.31625l4.86066,-6.11374l9.52374,-0.37973l0.25061,-0.0076l9.2124,-0.37213l4.47333,5.21l9.87317,11.49841l11.39209,2.27841c9.11371,3.03791 6.83526,22.02472 6.83526,22.02472l-6.42512,44.83166z"/>
  <circle id="svg_18" fill="#ffb6b6" r="19.52246" cy="169.02274" cx="605.27713"/>
  <path id="svg_19" fill="#7f7f7f" d="m627.91285,162.45542c-5.36963,-3.29306 -4.68152,-11.90341 -9.85528,-14.91013a18.42448,18.42448 0 0 0 -17.03235,-0.71533c-3.644,-1.559 -8.00983,-0.31485 -10.92505,2.50037s-4.49341,6.96829 -4.95856,11.145a41.70474,41.70474 0 0 0 0.89374,12.52578q0.43423,-2.47467 0.86865,-4.94937l15.39032,-3.36368q-2.04373,1.83613 -4.0874,3.67228a27.9555,27.9555 0 0 0 20.43665,-3.196c6.69982,3.00354 5.48553,9.749 -0.39588,18.701c2.27869,3.79732 15.78339,-17.65772 9.66516,-21.40992z"/>
  <path id="svg_20" fill="#e6e6e6" d="m619.68342,196.67002a1.54231,1.54231 0 0 1 -0.13672,0.09872a10.2272,10.2272 0 0 1 -5.32391,1.443a9.41438,9.41438 0 0 1 -6.78211,-2.12656c-0.99493,-0.94174 -4.95178,1.04806 -7.54913,2.14932a11.45963,11.45963 0 0 1 -8.52893,0.09873l4.86066,-6.11374l8.01074,-1.77616l2,0l8.97607,1.0167l4.47333,5.20999z"/>
  <path id="svg_21" fill="#cacaca" d="m750.76612,555.56089l-271.75,0.30731a1.19069,1.19069 0 1 1 -0.01239,-2.38135l0.01239,0l271.75,-0.30731a1.19069,1.19069 0 0 1 0,2.38135z"/>
  <polygon id="svg_22" fill="#3f3d56" points="425.383 155.694 423.383 155.694 423.383 12.651 502.04 12.651 502.04 14.651 425.383 14.651 425.383 155.694"/>
  <path id="svg_23" fill="#6366f1" d="m563.2126,0l-53,0a13,13 0 1 0 0,26l53,0a13,13 0 0 0 0,-26z"/>
  <circle id="svg_24" fill="#6366f1" r="11.9459" cy="156.83443" cx="423.22266"/>
  <path id="svg_25" fill="#f2f2f2" d="m279.27183,201.72226l52.40616,-12.12715l15.04248,-3.481c1.88165,-0.43542 1.1,-3.33228 -0.78247,-2.89667l-52.40619,12.12717l-15.04251,3.481c-1.88162,0.43542 -1.1,3.33227 0.78247,2.89666l0.00006,-0.00001z"/>
  <path id="svg_26" fill="#f2f2f2" d="m333.38807,170.13993l28.05487,12.90539a9.28858,9.28858 0 0 1 2.65485,1.43723c0.77435,0.75848 0.21069,1.488 -0.42139,2.14868a63.26333,63.26333 0 0 1 -5.97143,4.92874l-11.9524,9.71732c-1.50042,1.21985 0.61683,3.34839 2.10315,2.14l10.41016,-8.46347l5.20508,-4.23172c1.47467,-1.19891 3.26971,-2.42236 3.8623,-4.33227c1.24506,-4.01252 -3.66839,-5.60794 -6.39892,-6.864l-12.21747,-5.62008l-13.80115,-6.34864c-1.73962,-0.80023 -3.28052,1.77649 -1.52765,2.5828l0,0.00002z"/>
  <path id="svg_27" fill="#e6e6e6" d="m720.54103,268.3835c-4.998,-3.38851 -11.06985,-4.64753 -17.00483,-5.07487a182.41012,182.41012 0 0 0 -20.25175,0.02384q-10.50974,0.41631 -20.97673,1.521q-10.45221,1.1062 -20.81651,2.89876a153.8285,153.8285 0 0 0 -18.33117,4.01243a49.19474,49.19474 0 0 0 -15.85191,7.65491a28.07208,28.07208 0 0 0 -9.31515,12.3249a22.89105,22.89105 0 0 0 -0.89946,14.45593a17.234,17.234 0 0 0 3.40751,6.33058a23.74387,23.74387 0 0 0 6.34844,5.02626c4.95806,2.83121 10.57553,4.53327 15.06,8.1579a21.28971,21.28971 0 0 1 3.21526,3.19683a5.83546,5.83546 0 0 0 2.58274,2.03174a5.27473,5.27473 0 0 0 5.66844,-1.45932a19.189,19.189 0 0 0 2.23074,-3.96636l2.36571,-4.56409a6.38156,6.38156 0 0 1 0.59142,-1.141c0.17725,-0.21138 -0.13962,0.00446 -0.0792,-0.05121c0.03327,-0.03062 0.10183,-0.02968 0.13984,-0.05413a3.42678,3.42678 0 0 1 0.61079,-0.23414q3.28248,-1.25142 6.59424,-2.42453c8.14921,-2.90438 16.39663,-5.58147 24.77429,-7.74963a119.87453,119.87453 0 0 1 13.09624,-2.73988c5.7157,-0.81412 11.51805,-0.71959 17.25972,-1.27609c6.18185,-0.59918 12.56047,-1.85036 17.86173,-5.25438a23.19286,23.19286 0 0 0 9.602,-11.4928a16.08029,16.08029 0 0 0 0.80092,-7.11558c-0.68864,-5.43461 -4.23941,-10.0242 -8.68332,-13.03707z"/>
  <path id="svg_28" fill="#fff" d="m710.31191,271.43716c-4.51653,-3.06211 -10.00352,-4.19985 -15.3668,-4.586a164.83909,164.83909 0 0 0 -18.301,0.02155q-9.49737,0.3762 -18.9561,1.37445q-9.44539,0.99964 -18.81132,2.61953a139.01,139.01 0 0 0 -16.56538,3.62592a44.45594,44.45594 0 0 0 -14.32491,6.9175a25.368,25.368 0 0 0 -8.41785,11.13769a20.68606,20.68606 0 0 0 -0.81282,13.06343a15.57387,15.57387 0 0 0 3.07928,5.72077a21.45667,21.45667 0 0 0 5.73691,4.5421c4.48046,2.55848 9.55682,4.09659 13.60934,7.37207a19.23888,19.23888 0 0 1 2.90554,2.8889a5.2734,5.2734 0 0 0 2.334,1.836a4.76662,4.76662 0 0 0 5.12242,-1.31875a17.34068,17.34068 0 0 0 2.01585,-3.58429l2.13783,-4.12445a5.76654,5.76654 0 0 1 0.53446,-1.03111c0.16017,-0.191 -0.12618,0.004 -0.07158,-0.04628c0.03006,-0.02767 0.092,-0.02682 0.12637,-0.04891a3.09664,3.09664 0 0 1 0.552,-0.21159q2.96628,-1.13087 5.959,-2.191c7.36422,-2.6246 14.8172,-5.04381 22.38786,-7.00312a108.32439,108.32439 0 0 1 11.83472,-2.476c5.16512,-0.7357 10.40855,-0.65027 15.59714,-1.15317c5.58637,-0.54146 11.35055,-1.67212 16.14116,-4.74824a20.95875,20.95875 0 0 0 8.67707,-10.38573a14.53149,14.53149 0 0 0 0.72377,-6.43017c-0.62238,-4.91097 -3.83112,-9.05846 -7.84696,-11.7811z"/>
  <path id="svg_29" fill="#e6e6e6" d="m700.85209,276.96677l-73.60109,13.57481a1.62841,1.62841 0 1 1 -0.60031,-3.201l0.0096,-0.00177l73.60108,-13.5748a1.6284,1.6284 0 1 1 0.59072,3.20278l0,-0.00002z"/>
  <path id="svg_30" fill="#e6e6e6" d="m702.66503,286.79631l-73.60109,13.5748a1.62841,1.62841 0 1 1 -0.60032,-3.201l0.00961,-0.00177l73.60108,-13.5748a1.6284,1.6284 0 1 1 0.59072,3.20278l0,-0.00001z"/>
  <path id="svg_31" fill="#e6e6e6" d="m639.45398,308.61854l-8.57714,1.58194a1.62841,1.62841 0 0 1 -0.59071,-3.20278l8.57714,-1.58195a1.62841,1.62841 0 0 1 0.59071,3.20279z"/>
  <circle id="svg_32" transform="rotate(-10.4501 -303.19 -8.26639)" fill="#d1d3d4" r="6.9213" cy="506.47588" cx="552.82006"/>
  <path id="svg_33" fill="#e6e6e6" d="m252.34101,198.6225l-62.86621,0a11.02078,11.02078 0 0 1 -11.00781,-11.00781l0,-41.43258a11.02079,11.02079 0 0 1 11.00781,-11.00781l62.86621,0a11.02079,11.02079 0 0 1 11.00782,11.00781l0,41.43262a11.02078,11.02078 0 0 1 -11.00782,11.00777z"/>
  <path id="svg_34" fill="#fff" d="m245.43267,196.39034l-54.71347,0a9.59156,9.59156 0 0 1 -9.58027,-9.58028l0,-36.05944a9.59156,9.59156 0 0 1 9.58027,-9.58028l54.71347,0a9.59157,9.59157 0 0 1 9.58028,9.58028l0,36.05949a9.59157,9.59157 0 0 1 -9.58028,9.58023z"/>
  <path id="svg_35" fill="#e6e6e6" d="m261.19581,235.95075l-80.66568,0a1.88221,1.88221 0 0 1 0,-3.76441l80.66568,0a1.88221,1.88221 0 0 1 0,3.76441z"/>
  <path id="svg_36" fill="#e6e6e6" d="m261.19581,225.19532l-80.66568,0a1.88221,1.88221 0 0 1 0,-3.76441l80.66568,0a1.88221,1.88221 0 0 1 0,3.76441z"/>
  <path id="svg_37" fill="#e6e6e6" d="m261.19581,246.70618l-80.66568,0a1.8822,1.8822 0 1 1 0,-3.7644l80.66568,0a1.8822,1.8822 0 1 1 0,3.7644z"/>
  <path id="svg_38" fill="#e6e6e6" d="m261.19581,257.46158l-80.66568,0a1.8822,1.8822 0 1 1 0,-3.7644l80.66568,0a1.8822,1.8822 0 1 1 0,3.7644z"/>
  <path id="svg_39" fill="#e6e6e6" d="m261.19581,268.21701l-80.66568,0a1.8822,1.8822 0 1 1 0,-3.7644l80.66568,0a1.8822,1.8822 0 1 1 0,3.7644z"/>
  <path id="svg_40" fill="#e6e6e6" d="m261.19581,278.97245l-80.66568,0a1.88221,1.88221 0 0 1 0,-3.76441l80.66568,0a1.88221,1.88221 0 0 1 0,3.76441z"/>
  <polygon id="svg_41" fill="#3f3d56" points="216.83 254.306 218.83 254.306 218.83 331.349 74.173 331.349 74.173 329.349 216.83 329.349 216.83 254.306"/>
  <path id="svg_42" fill="#6366f1" d="m13.00001,344.00004l53,0a13,13 0 0 0 0,-26l-53,0a13,13 0 0 0 0,26z"/>
  <circle id="svg_43" fill="#6366f1" r="11.94591" cy="248.16557" cx="219.22267"/>
  <path id="svg_44" fill="#f2f2f2" d="m280.96775,251.48511c17.53861,3.72754 13.07724,4.45508 30.61582,8.18259l15.10266,3.20984c1.88916,0.40152 2.40649,-2.554 0.51648,-2.95572c-17.53864,-3.72754 -13.07721,-4.45508 -30.61585,-8.18259l-15.10269,-3.20981c-1.88916,-0.40152 -2.40652,2.554 -0.51645,2.95569l0.00003,0z"/>
  <path id="svg_45" fill="#f2f2f2" d="m321.36378,242.76282l19.96075,23.56253a9.28835,9.28835 0 0 1 1.79755,2.42542c0.38074,1.01486 -0.4386,1.43741 -1.29083,1.76864a63.25783,63.25783 0 0 1 -7.49595,1.9397l-14.9411,3.74826c-1.87561,0.47052 -0.85767,3.29495 1.0003,2.82883l13.01325,-3.26459l6.50659,-1.63229c1.84344,-0.46247 3.98749,-0.81165 5.33246,-2.29151c2.82568,-3.109 -0.95142,-6.6333 -2.89417,-8.9266l-8.69252,-10.2611l-9.8194,-11.59125c-1.23773,-1.46106 -3.724,0.22183 -2.47693,1.694l0,-0.00004z"/>
  <circle id="svg_46" fill="#e6e6e6" r="27.78001" cy="317.6947" cx="384.65252"/>
  <circle id="svg_47" fill="#fff" r="21.11934" cy="320.81375" cx="381.94477"/>
  <path id="svg_48" fill="#e6e6e6" d="m378.15545,335.27237a3.08918,3.08918 0 0 1 -2.47186,-1.23633l-7.5788,-10.10522a3.09006,3.09006 0 1 1 4.94232,-3.71045l0.00189,0.0025l4.95832,6.6106l12.7348,-19.10193a3.0902,3.0902 0 1 1 5.14239,3.42828l-15.15759,22.73645a3.09135,3.09135 0 0 1 -2.48547,1.37512c-0.02869,0.00043 -0.05731,0.00098 -0.086,0.00098z"/>
  <path id="svg_49" fill="#ffb8b8" d="m644.05073,346.31272a7.09761,7.09761 0 0 0 1.79376,-10.73447l22.30573,-38.978l-13.08759,0.71116l-19.6582,37.7717a7.13606,7.13606 0 0 0 8.64636,11.22962l-0.00006,-0.00001z"/>
  <path id="svg_50" fill="#3f3d56" d="m618.92671,209.68738s23.62439,-7.59472 29.70013,10.63263s26.5008,67.59311 26.5008,67.59311l-21.944,44.8089l-9.87316,-10.63263l10.55194,-31.13843l-30.37891,-45.56836l-4.5568,-35.69522z"/>
  <path id="svg_51" fill="#e6e6e6" d="m653.93623,328.14594a12.89014,12.89014 0 0 0 -2.67084,-3.19632l-7.538,-7.25491l-0.41913,0.935a10.23032,10.23032 0 0 0 4.16815,14.68674a6.661,6.661 0 0 0 3.60187,0.74393a3.9464,3.9464 0 0 0 3.04083,-1.8992a4.36364,4.36364 0 0 0 -0.18288,-4.01524z"/>
  <polygon id="svg_52" fill="#3f3d56" points="384.412 355.068 382.412 355.068 382.412 432.111 450.069 432.111 450.069 430.111 384.412 430.111 384.412 355.068"/>
  <path id="svg_53" fill="#6366f1" d="m524.24187,431.76216a13.01245,13.01245 0 0 0 -13,-13l-53,0a13,13 0 0 0 0,26l53,0a13.01246,13.01246 0 0 0 13,-13z"/>
  <circle id="svg_54" fill="#6366f1" r="11.94589" cy="348.92771" cx="382.01917"/>
 </g>
</svg>